<?xml version="1.0" standalone="no"?>
<!DOCTYPE svg PUBLIC "-//W3C//DTD SVG 20010904//EN"
 "http://www.w3.org/TR/2001/REC-SVG-20010904/DTD/svg10.dtd">
<svg version="1.0" xmlns="http://www.w3.org/2000/svg"
 width="260.000000pt" height="260.000000pt" viewBox="0 0 260.000000 260.000000"
 preserveAspectRatio="xMidYMid meet">
<metadata>
Created by potrace 1.11, written by Peter Selinger 2001-2013
</metadata>
<g transform="translate(0.000000,260.000000) scale(0.100000,-0.100000)"
fill="#000000" stroke="none">
<path d="M652 2570 c-114 -82 -256 -342 -360 -660 -105 -322 -145 -556 -107
-629 22 -44 66 -61 194 -76 l53 -7 -8 64 c-15 118 -5 252 28 398 5 25 11 54
14 65 2 11 15 63 29 115 14 52 27 102 29 110 17 65 86 252 122 329 71 152 116
197 127 129 2 -18 3 -181 1 -363 -4 -359 1 -404 52 -492 57 -99 162 -118 233
-42 43 46 60 94 217 594 63 202 69 182 49 -175 -16 -289 -11 -386 24 -465 33
-75 90 -96 179 -66 28 10 60 28 70 42 20 24 20 24 -8 64 -39 57 -60 134 -75
280 -3 22 -7 121 -10 220 -11 364 -18 402 -84 458 -36 30 -47 32 -88 16 -82
-31 -121 -115 -291 -618 -32 -96 -61 -170 -65 -165 -3 6 -8 88 -12 184 -14
397 -17 433 -41 540 -16 72 -53 141 -86 165 -14 9 -45 15 -84 15 -52 0 -67 -4
-102 -30z"/>
<path d="M1697 2355 c-47 -16 -74 -40 -97 -85 -46 -93 18 -187 151 -220 l46
-12 -30 -71 c-41 -98 -46 -177 -15 -236 44 -86 147 -107 256 -54 94 46 209
171 275 298 37 71 41 101 14 120 -32 23 -41 19 -67 -27 -48 -89 -129 -206
-169 -247 -120 -122 -197 -62 -116 89 119 220 117 225 -122 265 -24 4 -43 8
-43 10 0 1 7 22 15 45 20 57 19 93 -4 114 -26 23 -50 26 -94 11z"/>
<path d="M2375 1823 c-32 -8 -85 -53 -96 -81 -23 -60 43 -172 109 -187 101
-22 224 86 208 183 -10 67 -121 109 -221 85z"/>
<path d="M829 1396 c-2 -2 -22 -6 -44 -9 -97 -14 -241 -77 -277 -121 -23 -28
-22 -33 8 -61 l25 -24 61 40 c34 21 63 38 64 36 2 -1 -8 -32 -21 -68 -25 -69
-80 -287 -90 -354 -3 -22 -9 -65 -14 -95 -5 -30 -8 -118 -7 -195 1 -156 12
-192 66 -220 50 -26 180 -14 171 16 -37 127 -43 164 -45 295 -4 208 21 380 76
529 17 44 32 95 35 114 l5 33 87 -4 c100 -6 146 -24 180 -74 45 -66 22 -166
-54 -232 -55 -49 -93 -65 -139 -59 -83 11 -136 -40 -95 -94 16 -21 21 -23 56
-13 61 16 165 11 197 -10 83 -54 69 -209 -24 -256 -61 -31 -155 -29 -221 5
-55 29 -70 -47 -19 -95 92 -86 315 -73 408 23 108 112 73 297 -71 372 l-55 29
56 28 c118 56 182 138 182 232 0 55 -16 89 -62 133 -35 34 -119 75 -178 87
-38 8 -255 18 -261 12z"/>
<path d="M1974 1361 c-38 -23 -58 -70 -50 -114 7 -38 24 -56 78 -83 l38 -19
-42 -70 c-23 -38 -63 -91 -90 -118 -45 -45 -51 -48 -65 -34 -12 12 -15 33 -14
83 1 37 4 71 7 75 12 20 5 128 -10 158 -16 30 -53 47 -93 44 -7 0 -21 -1 -32
-2 -16 -1 -18 -10 -18 -78 -1 -149 -17 -196 -86 -237 -46 -28 -50 -16 -42 113
4 64 7 130 6 146 -3 56 -39 72 -141 66 l-26 -1 -1 -117 c-1 -65 -4 -145 -6
-178 -8 -107 33 -165 118 -165 44 0 100 28 139 69 l29 31 18 -41 c44 -97 160
-86 273 27 57 57 66 63 66 39 0 -27 22 -62 50 -78 89 -53 226 22 325 178 46
71 55 119 27 134 -17 9 -25 1 -72 -76 -63 -104 -129 -173 -164 -173 -54 0 -50
52 13 158 55 93 39 117 -90 142 l-57 11 13 42 c18 62 5 87 -45 87 -14 0 -39
-9 -56 -19z"/>
<path d="M283 1039 c-64 -19 -74 -103 -17 -148 27 -21 66 -21 105 -1 24 14 59
64 59 87 0 21 -34 63 -53 64 -7 0 -23 2 -37 4 -14 2 -40 -1 -57 -6z"/>
<path d="M2135 722 c-59 -13 -92 -67 -70 -118 12 -28 33 -44 88 -64 l27 -10
-29 -47 c-38 -61 -103 -127 -145 -147 -36 -17 -81 -13 -104 10 -13 14 -10 20
32 61 49 49 69 98 60 147 -8 45 -23 67 -57 81 -73 31 -162 -18 -196 -107 -6
-16 -22 -28 -50 -36 -46 -14 -56 -15 -56 -4 -3 58 -41 84 -93 63 -21 -9 -28
-19 -30 -43 -4 -57 -62 -96 -62 -43 0 31 25 93 47 117 17 19 49 24 55 9 6 -17
68 17 68 37 0 29 -21 42 -69 42 -84 -1 -174 -62 -203 -140 -22 -57 -11 -127
23 -148 30 -19 92 -17 125 4 17 10 4 -8 -34 -47 -79 -80 -117 -154 -117 -227
0 -46 4 -57 28 -78 63 -54 155 -15 207 87 30 59 57 173 59 250 1 31 6 38 39
53 20 10 39 18 42 17 2 0 6 -15 8 -33 10 -88 86 -157 183 -165 49 -5 67 -2
111 20 30 15 69 40 88 57 39 35 38 35 60 15 28 -25 83 -29 124 -10 75 36 195
189 180 230 -13 33 -33 22 -69 -38 -42 -72 -59 -94 -99 -125 -65 -50 -80 -7
-31 90 19 37 35 75 35 84 0 17 -56 44 -92 44 -41 0 -50 12 -37 49 10 28 9 35
-7 50 -11 10 -28 16 -39 13z m-225 -190 c0 -25 -33 -92 -45 -92 -9 0 3 87 15
109 14 27 30 18 30 -17z m-408 -319 c-16 -89 -41 -148 -61 -148 -39 0 -1 137
57 208 8 9 16 17 17 17 1 0 -5 -35 -13 -77z"/>
<path d="M97 553 l-98 -36 3 -51 3 -51 58 1 c49 2 76 11 173 59 62 31 114 61
114 66 0 15 -69 41 -115 45 -27 2 -71 -8 -138 -33z"/>
<path d="M990 272 c-92 -45 -12 -189 83 -149 43 19 67 47 74 90 5 33 2 38 -28
56 -42 26 -83 27 -129 3z"/>
<path d="M420 150 c-19 -11 -43 -23 -52 -26 -44 -15 3 -38 73 -37 43 1 75 16
89 43 9 17 7 22 -15 30 -38 14 -56 12 -95 -10z"/>
</g>
</svg>
